/* XPM */
static char *result[] = {
/* columns rows colors chars-per-pixel */
"32 32 97 2 ",
"   c #D12F1F",
".  c #D22E1F",
"X  c #D1331C",
"o  c #D1331D",
"O  c #D2321D",
"+  c #D1301F",
"@  c #D2311E",
"#  c #D2301F",
"$  c #D1331E",
"%  c #D0331F",
"&  c #D1331F",
"*  c #D3321E",
"=  c #D2331E",
"-  c #D2331F",
";  c #D1351D",
":  c #D2341D",
">  c #D2351D",
",  c #D1341E",
"<  c #D1351E",
"1  c #D0341F",
"2  c #D1341F",
"3  c #D0351F",
"4  c #D1351F",
"5  c #D2341E",
"6  c #D3341E",
"7  c #D2351E",
"8  c #D2341F",
"9  c #D3341F",
"0  c #D2351F",
"q  c #D0361F",
"w  c #D12E20",
"e  c #D22F20",
"r  c #D13320",
"t  c #D13321",
"y  c #D23320",
"u  c #D13420",
"i  c #D13520",
"p  c #D23420",
"a  c #D33420",
"s  c #D23520",
"d  c #D79404",
"f  c #D99604",
"g  c #DB9604",
"h  c #DA9704",
"j  c #DA9705",
"k  c #DB9705",
"l  c #E3A306",
"z  c #E4A307",
"x  c #E3A505",
"c  c #E2A406",
"v  c #E3A406",
"b  c #E2A506",
"n  c #E3A506",
"m  c #E2A407",
"M  c #E3A407",
"N  c #E2A507",
"B  c #E3A507",
"V  c #E1A607",
"C  c #E2A606",
"Z  c #E3A606",
"A  c #E3A706",
"S  c #E2A607",
"D  c #E3A607",
"F  c #E4A505",
"G  c #E5A705",
"H  c #E4A406",
"J  c #E4A506",
"K  c #E5A506",
"L  c #E4A407",
"P  c #E5A407",
"I  c #E4A507",
"U  c #E5A507",
"Y  c #E4A606",
"T  c #E5A606",
"R  c #E4A706",
"E  c #E5A706",
"W  c #E4A607",
"Q  c #E5A707",
"!  c #E7A707",
"~  c #E2A308",
"^  c #E1A408",
"/  c #E4A408",
"(  c #E5A508",
")  c #E4A608",
"_  c #E5A609",
"`  c #E5A808",
"'  c #FEC800",
"]  c #FFC800",
"[  c #FEC900",
"{  c #FFC900",
"}  c #FECA00",
"|  c #FFCA00",
" . c #FECB00",
".. c #FFCB00",
"X. c #FEDC00",
"o. c #FEDE00",
"O. c None",
/* pixels */
"O.O.O.O.O.O.O.O.O.O.O.O.O.O.O.O.O.O.O.O.O.O.O.O.O.O.O.O.O.O.O.O.",
"O.O.O.O.O.O.O.O.O.O.O.O.O.O.O.O.O.O.O.O.O.O.O.O.O.O.O.O.O.O.O.O.",
"O.O.O.O.O.O.O.O.O.O.O.O.O.O.O.O.O.O.O.O.O.O.O.O.O.O.O.O.O.O.O.O.",
"O.O.O.O.O.O.O.O.O.O.O.O.O.O.O.O.O.O.O.O.O.O.O.O.O.O.O.O.O.O.O.O.",
"O.O.O.O.O.O.b N N C Z Z D S b n N D B D O.O.O.O.O.O.O.O.O.O.O.O.",
"O.O.O.O.O.O.D W Z S S Z b Y Z Z G Z Z Z O.O.O.O.O.O.O.O.O.O.O.O.",
"O.O.O.O.O.O.Z E } | | { ..| { [ { | J Z O.O.O.O.O.O.O.O.O.O.O.O.",
"O.O.O.O.O.O.C A } [ } [ { { } { { | Y x O.O.O.O.O.O.O.O.O.O.O.O.",
"O.O.O.O.O.O.n b J Y R Y B Y J Z J J Y v O.O.O.O.O.O.O.O.O.O.O.O.",
"O.O.O.O.O.O.D n J n F J J v J K v F n D O.O.O.O.O.O.O.O.O.O.O.O.",
"O.O.O.O.O.O.n J - u - 5 2 5 4 8 < 2 Z H O.O.O.O.O.O.O.O.O.O.O.O.",
"O.O.O.O.O.O.n Z 1 2 0 0 i 2 u 3 2 0 A Y O.O.O.O.O.O.O.O.O.O.O.O.",
"O.O.O.O.O.O.n B p y { [ 0 p u 0 } } Y n O.O.O.O.O.O.O.O.O.O.O.O.",
"O.O.O.O.O.O.M n 2 2 [ [ 0 q 4 4 { [ W Y O.O.O.O.O.O.O.O.O.O.O.O.",
"O.O.O.O.O.O.I M p 2 8 p u p 2 8 i 2 I I O.O.O.O.O.O.O.O.O.O.O.O.",
"O.O.O.O.O.O.v l 2 8 p 0 4 0 8 7 5 4 n H O.O.O.O.O.O.O.O.O.O.O.O.",
"O.O.O.O.c v $ u - u p 4 0 , { [ 8 u 0 i J D O.O.O.O.O.O.O.O.O.O.",
"O.O.O.O.B m 8 & , , & s 4 0 [ | u 4 ; 1 P I O.O.O.O.O.O.O.O.O.O.",
"O.O.O.O.n v 2 = ' ' 8 2 u 4 2 y p s [ ] 6 8 J B O.O.O.O.O.O.O.O.",
"O.O.O.O.v b , =  .} 8 p 5 , p y y u ..| 0 p U I O.O.O.O.O.O.O.O.",
"O.O.O.O.n n 2 8 u o & u { { p 2 u 2 p 2 y , u u v Y O.O.O.O.O.O.",
"O.O.O.O.^ V = = 8 u 8 u | | r u p 2 u a 7 8 4 4 J Z O.O.O.O.O.O.",
"O.O.O.O.O.O.z / - u y 2 y p u t p 8 8 p } { 8 & B W O.O.O.O.O.O.",
"O.O.O.O.O.O.b B : X > o & 2 2 p 5 5 8 - } { 8 2 B T O.O.O.O.O.O.",
"O.O.O.O.O.O.O.O.C D J J , 2 - & ' | 8 2 8 9 & 1 Z n O.O.O.O.O.O.",
"O.O.O.O.O.O.O.O.~ ) ` ! 5 * 8 8 X.o.0 u 8 5 @ O I _ O.O.O.O.O.O.",
"O.O.O.O.O.O.O.O.O.O.O.O.J L % 1 & 2 u 2 2 , Z B O.O.O.O.O.O.O.O.",
"O.O.O.O.O.O.O.O.O.O.O.O.W ( +     # w + . e Q W O.O.O.O.O.O.O.O.",
"O.O.O.O.O.O.O.O.O.O.O.O.O.O.Z n n n b n M N O.O.O.O.O.O.O.O.O.O.",
"O.O.O.O.O.O.O.O.O.O.O.O.O.O.d j g j k h h f O.O.O.O.O.O.O.O.O.O.",
"O.O.O.O.O.O.O.O.O.O.O.O.O.O.O.O.O.O.O.O.O.O.O.O.O.O.O.O.O.O.O.O.",
"O.O.O.O.O.O.O.O.O.O.O.O.O.O.O.O.O.O.O.O.O.O.O.O.O.O.O.O.O.O.O.O."
};
