/* XPM */
static char *result[] = {
/* columns rows colors chars-per-pixel */
"32 32 71 1 ",
"  c #5A3921",
". c #5B3921",
"X c #5D3B22",
"o c #5F3D23",
"O c #634024",
"+ c #674225",
"@ c #674226",
"# c #694426",
"$ c #7A4D2B",
"% c #7B4D2B",
"& c #263D4D",
"* c #294355",
"= c #2B4557",
"- c #2B4658",
"; c #304C60",
": c #314D62",
"> c #315064",
", c #335065",
"< c #335267",
"1 c #3B5264",
"2 c #3E5464",
"3 c #345268",
"4 c #345369",
"5 c #35546A",
"6 c #35556B",
"7 c #36566C",
"8 c #36566D",
"9 c #36576D",
"0 c #37576E",
"q c #3C5D74",
"w c #3C5E74",
"e c #3D5E75",
"r c #424446",
"t c #494F54",
"y c #4B5257",
"u c #545556",
"i c #796253",
"p c #7D6451",
"a c #7C6452",
"s c #7D6453",
"d c #855733",
"f c #8B5833",
"g c #8D5B36",
"h c #915F39",
"j c #94613A",
"k c #846D5D",
"l c #8B6D58",
"z c #8F725D",
"x c #937661",
"c c gray",
"v c #B6C1CC",
"b c #C5C5C4",
"n c #C5C4C5",
"m c #C6C6C5",
"M c #C2C6CA",
"N c #C4CFDB",
"B c #CCD4DB",
"V c #D7D9DB",
"C c #D5DAE0",
"Z c #D3DEEA",
"A c #D8E3EF",
"S c #EDEDEC",
"D c #E4EAF1",
"F c #E7EDF2",
"G c #F4F4F3",
"H c #F5F5F3",
"J c gray96",
"K c #F8F8F8",
"L c #FEFEFE",
"P c white",
"I c None",
/* pixels */
"IIIIIIIIIIIIIIIIIIIIIIIIIIIIIIII",
"IIIIIIIIIIIIIIIIIIIIIIIIIIIIIIII",
"IIIIIIIIfIIIIIIIIIIIIIffIIIIIIII",
"IIIIIIIIfIIIIIIIIIIIIIffIIIIIIII",
"IIIIIIII$gjjjjjjjjjjjj$%IIIIIIII",
"IIIIIIII$#OOOOOOOOOOOO$%IIIIIIII",
"IIIIIIIIzkiaaaaaaaapsixlIIIIIIII",
"IIIIIIIINAmSJGGGGHJJDbZvIIIIIIII",
"IIIIIIIINAmJJPPPPPLLJnZvIIIIIIII",
"IIIIIIIINAmFJJJJKKKJFnZvIIIIIIII",
"IIIIIIIINAcVCCCCCCCCVcZvIIIIIIII",
"IIIIIIIINABMMMMMMMMMMBZvIIIIIIII",
"IIIIIIIINAAAAAAAAAAAAAZvIIIIIIII",
"IIIIIIIIweeeeeeeeeeeeeeqIIIIIIII",
"IIIIIIII43333333333333:&IIIIIIII",
"IIIIIIII09999999999999>&IIIIIIII",
"IIIIIIII=-------------*&IIIIIIII",
"IIIIIIII,3355333333333;&IIIIIIII",
"IIIIIIII<5555333333333;&IIIIIIII",
"IIIIIIII,3333333368784;&IIIIIIII",
"IIIIIIII,3333333470005;&IIIIIIII",
"IIIIIIII,3333333333333;&IIIIIIII",
"IIIIIIIIy1333333333333trIIIIIIII",
"IIIIIIIIfu222222222222ffIIIIIIII",
"IIIIIIII+dhhhhhhhhhhhh+@IIIIIIII",
"IIIIIIIIOXOOOOOOOOOOOoOOIIIIIIII",
"IIIIIIIIOXOOOOOOOOOOOoOOIIIIIIII",
"IIIIIIIIOXOOOOOOOOOOOoOOIIIIIIII",
"IIIIIIIIOX........... OOIIIIIIII",
"IIIIIIIIOXIIIIIIIIIIIIOOIIIIIIII",
"IIIIIIIIIIIIIIIIIIIIIIIIIIIIIIII",
"IIIIIIIIIIIIIIIIIIIIIIIIIIIIIIII"
};
