/* XPM */
static char *result[] = {
/* columns rows colors chars-per-pixel */
"32 32 236 2 ",
"   c #47210D",
".  c #47220D",
"X  c #46210E",
"o  c #47210E",
"O  c #46210F",
"+  c #47210F",
"@  c #46220E",
"#  c #47220E",
"$  c #46220F",
"%  c #47220F",
"&  c #48210E",
"*  c #48210F",
"=  c #48220E",
"-  c #48220F",
";  c #893702",
":  c #883703",
">  c #893703",
",  c #8A3703",
"<  c #8B3703",
"1  c #8B3704",
"2  c #893803",
"3  c #8A3803",
"4  c #8B3803",
"5  c #8C3803",
"6  c #8D3803",
"7  c #8C3903",
"8  c #8D3903",
"9  c #8D3A03",
"0  c #8A3804",
"q  c #8B3804",
"w  c #8C3804",
"e  c #8D3804",
"r  c #8C3904",
"t  c #8D3904",
"y  c #8E3804",
"u  c #8F3804",
"i  c #8E3904",
"p  c #8F3904",
"a  c #8E3905",
"s  c #8E3A04",
"d  c #903904",
"f  c #903905",
"g  c #903A04",
"h  c #903A05",
"j  c #913A05",
"k  c #913B05",
"l  c #923B05",
"z  c #933B05",
"x  c #903A06",
"c  c #933B06",
"v  c #943B05",
"b  c #943C05",
"n  c #963C06",
"m  c #9B3C07",
"M  c #9A3D07",
"N  c #9B3D07",
"B  c #9B3F06",
"V  c #9B3E07",
"C  c #9A3F07",
"Z  c #9B3F07",
"A  c #9C3E07",
"S  c #9D3E07",
"D  c #9C3F07",
"F  c #9B3C08",
"G  c #9B3D08",
"H  c #9B3E08",
"J  c #9C3C08",
"K  c #9C3D08",
"L  c #9D3D08",
"P  c #9E3D08",
"I  c #9E3D09",
"U  c #9F3D09",
"Y  c #9D3E08",
"T  c #9E3E08",
"R  c #9F3E09",
"E  c #9F3F09",
"W  c #A03F08",
"Q  c #A03E09",
"!  c #A13E09",
"~  c #A23E09",
"^  c #A33F09",
"/  c #A13F0A",
"(  c #A33F0A",
")  c #A33E0C",
"_  c #A53D0D",
"`  c #A43E0C",
"'  c #A43E0D",
"]  c #A43F0D",
"[  c #AC3F0F",
"{  c #9C4007",
"}  c #A24008",
"|  c #A4400A",
" . c #AC4010",
".. c #B14211",
"X. c #B24211",
"o. c #B14112",
"O. c #B14113",
"+. c #B24112",
"@. c #B24113",
"#. c #B04212",
"$. c #B14212",
"%. c #B14312",
"&. c #B04213",
"*. c #B14213",
"=. c #B14313",
"-. c #B24212",
";. c #B34212",
":. c #B24312",
">. c #B34312",
",. c #B24213",
"<. c #B34213",
"1. c #B24313",
"2. c #B34313",
"3. c #B44213",
"4. c #B44313",
"5. c #B24412",
"6. c #B24214",
"7. c #B34214",
"8. c #B34314",
"9. c #B44314",
"0. c #B54314",
"q. c #BC4612",
"w. c #BC4613",
"e. c #BF4613",
"r. c #BF4713",
"t. c #B94714",
"y. c #BF4614",
"u. c #BB4813",
"i. c #BA4814",
"p. c #BB4814",
"a. c #BC4914",
"s. c #BD4914",
"d. c #BD4A14",
"f. c #BE4A14",
"g. c #BE4B14",
"h. c #BF4B14",
"j. c #BF4B15",
"k. c #BF4C14",
"l. c #C04614",
"z. c #C04714",
"x. c #C14814",
"c. c #C14914",
"v. c #C24814",
"b. c #C34814",
"n. c #C34915",
"m. c #C04B15",
"M. c #C14B15",
"N. c #C44915",
"B. c #C44A14",
"V. c #C44B15",
"C. c #C54B15",
"Z. c #C44B16",
"A. c #C64A16",
"S. c #C64B16",
"D. c #C04C14",
"F. c #C14D14",
"G. c #C04C15",
"H. c #C14C15",
"J. c #C24D14",
"K. c #C34C15",
"L. c #C24D15",
"P. c #C34D15",
"I. c #C74D14",
"U. c #C74C15",
"Y. c #C64D15",
"T. c #C54E14",
"R. c #C64F15",
"E. c #C54C16",
"W. c #C74C16",
"Q. c #C74D16",
"!. c #C64E16",
"~. c #C84E15",
"^. c #C94E15",
"/. c #C84F15",
"(. c #C94F15",
"). c #CA4E15",
"_. c #CA4F15",
"`. c #CA4D16",
"'. c #C84E16",
"]. c #C94F16",
"[. c #CA4E16",
"{. c #CB4E16",
"}. c #C95014",
"|. c #C95015",
" X c #C85115",
".X c #CA5015",
"XX c #CB5115",
"oX c #CA5016",
"OX c #CB5016",
"+X c #CD5214",
"@X c #CF5314",
"#X c #CE5215",
"$X c #CF5215",
"%X c #CD5116",
"&X c #CC5316",
"*X c #CE5316",
"=X c #CD5416",
"-X c #CE5516",
";X c #D05415",
":X c #D35614",
">X c #D45715",
",X c #D55715",
"<X c #D65715",
"1X c #D75716",
"2X c #D55815",
"3X c #D55915",
"4X c #D65914",
"5X c #D65815",
"6X c #D75815",
"7X c #D65915",
"8X c #D75915",
"9X c #D55A15",
"0X c #D65A15",
"qX c #D75A15",
"wX c #D75B15",
"eX c #D55916",
"rX c #D65816",
"tX c #D75816",
"yX c #D65916",
"uX c #D65A16",
"iX c #D65B16",
"pX c #D75B16",
"aX c #D75D16",
"sX c #D85815",
"dX c #D85915",
"fX c #D85B15",
"gX c #D85A16",
"hX c #D85B16",
"jX c #D85C16",
"kX c #DB5C16",
"lX c #DB5D17",
"zX c #DC5C17",
"xX c #E2631A",
"cX c #E3641A",
"vX c #E3651A",
"bX c #E4661B",
/* pixels */
"# + o % o o + o # o % o + o X # o o # X o # X o + O o + o % o @ ",
"# cX}.0XuXqX0XyXT.P.X :X@X+XuX0XqXuXqX7X;X% wXuX X0XyX7XrXk.H.# ",
"o 4X>.1.<.>.>.>.3.<.# 5X2.<.2.2.2.3.<.,.R.o 4.2.2.2.2.,.1.4.n % ",
"% 0X>.2.2.2.2.2.,.$.o vX<.2.m.<.<.:.i.t.T - 0.2.:.1.2.,.-.>.b o ",
"o 7X2.3.,.2.2.2.1.Q # 7X2.<.:.1.:.1.,.-.P # 9.2.2.:.1.<.1.1.v % ",
"o {.1.-.B -.2.,.,.Q X 0X<.-.%.1.7.>.1.,.I % 4.2.1.,.>.1.,.-.] # ",
"% ).,.<.2.1.<.-.-.Q o 7Xs.:.,.-.1.<.,.,.I # 2.>.{ $.;.-.B :.` # ",
"# [.$.-.6.,.-.,.-.I o 6Xj.,.1.,.:.2.1.,.Y = 4.1.-.2.-.2.:.$.' # ",
"# w.N -.%.2.:.H =. .- J.=.-.1.%.1.,.1.:.t % 1X:.>.1.:.<.:.| ' # ",
"= q.< , 2 ; > : , [ * F.g s s t s i t t w % D.8 5 4 3 3 r ) _ o ",
"% X % o o # # # - + # % + % % # X o o o - # X o = % # @ o + o # ",
"o %X#XyXuXyX2X,Xd.s.o aXuX/.!.Q.Y.x.v.b.c.# 0X3X0XeXeXs.a.g.H.o ",
"  z.p.,.<.<.<.<.,.c # jX1.<.>.1.<.1.,.-.z = hX<.-.2.;.,.*.-.l % ",
"# y.2.>.1.1.1.1.;.j * wX1.<.>.>.1.,.-.+.l = pX-.,.1.-.,.-.S j # ",
"o l.<.<.;.p.2.2.5.g O ].2.,.1.<.<.B $.,.g o eX,.:.m.*.-.$.-.g o ",
"# zX,.-.,.-.1.:.,.i # ^.1.,.<.@.-.:.%.o.h o 7X,.-.,.-.-.$.o.x + ",
"o kX2.,.,.,.-.-.-.y o ~.:.,.<.,.:.-.$.*.d % ,X:.:.:.-.,.Z #.g o ",
"# `.;.1.-.,.,.^ -.e = lX-.-.,.-.$.,.%.o.u o B.$.-.:.-.+.$.$.p & ",
"# ^.X.-.$.>.:.~ $.q # -X&.E 1.*.o.$.*.$.e o N.} $.1.$.$.o.$.i o ",
"o U.t 5 q 3 4 , 0 , % =XG L G m G N G G e * n.6 7 q w e e i e + ",
"= % % + % o + % = & + # + o o o % = . # & % # @ o - # X o = # + ",
"o 9X0XwXiX.X'.I.M.h.+ 3X3X>XgX8X7XtXOXf.f.# bXxX*X&XXX|.(.!.K.X ",
"* jX,.<.1.:.,.:.o.l # fX,.1.,.8.,.-.,.1.l # qX2.;.$.,.,.,.$.( o ",
"# qX<.*.2.-.-.:.$.j # 8X2.,.;.1.:.-.;.*.g o dX<.$.,.$.-.-.V / % ",
"# 8X-.Z -.:.:.:.*.d % (.1.;.1.*.:.:.$.$.h * sX,.-.*.u.o.#.$.! o ",
"= 4X,.-.2.*.1.$.$.s # _.;.1.C -.1.%.,.$.i # sX*.-.,.-.$.*.$.Q o ",
"= tX-.,.-.1.>.D $.i % oX-.$.1.%.-.-.-.Q a % <XG.$.$.-.$.$.$.U X ",
"o r.,.1.*.-.,.o.&.t $ $X,.$.,.$.&.$.$.W e o A.-.%.:.$.$.o.O.R o ",
"o r.$.,.-.L.$.-.$.t o W.-.$.$.O.O.M $.#.y % S...=.=.-.*.T $.8 o ",
"o e.-.*.$.#.A J H e # E.T L K J J F K P e * C.L S L K K k f i = ",
"# t 9 t r t w q w 5 # V.r 1 q 3 4 q 3 q w & Z.t 7 w r w w w w * ",
"+ o % # o o # o # o o % # % o # + % = @ + X @ + % + % + # + % o "
};
