/* XPM */
static char *result[] = {
/* columns rows colors chars-per-pixel */
"32 32 133 2 ",
"   c #613106",
".  c #633206",
"X  c #633306",
"o  c #633207",
"O  c #623307",
"+  c #633307",
"@  c #643307",
"#  c #623407",
"$  c #633407",
"%  c #643406",
"&  c #643407",
"*  c #653407",
"=  c #643507",
"-  c #673406",
";  c #683506",
":  c #623208",
">  c #623308",
",  c #633308",
"<  c #653308",
"1  c #623408",
"2  c #633408",
"3  c #643408",
"4  c #653408",
"5  c #653509",
"6  c #663408",
"7  c #673508",
"8  c #673409",
"9  c #663509",
"0  c #6B310A",
"q  c #69350A",
"w  c #6C3709",
"e  c #6D390C",
"r  c #213F78",
"t  c #A12120",
"y  c #A32021",
"u  c #AC2528",
"i  c #B22927",
"p  c #B42827",
"a  c #B62729",
"s  c #B02828",
"d  c #B02928",
"f  c #B12928",
"g  c #B32828",
"h  c #B32A28",
"j  c #B22B28",
"k  c #B2292A",
"l  c #B52828",
"z  c #B52B2D",
"x  c #B42D2D",
"c  c #BB292C",
"v  c #C83928",
"b  c #C83A28",
"n  c #CF3D30",
"m  c #CF3D31",
"M  c #D03C30",
"N  c #D13D30",
"B  c #D03C31",
"V  c #D13D31",
"C  c #D23D31",
"Z  c #D03E30",
"A  c #DB3A37",
"S  c #DD3A38",
"D  c #DD3B38",
"F  c #DC3C38",
"G  c #DD3C38",
"H  c #9D5412",
"J  c #9F5913",
"K  c #9F5718",
"L  c #9E551E",
"P  c #9F591A",
"I  c #A15611",
"U  c #A15412",
"Y  c #A05512",
"T  c #A15512",
"R  c #A15513",
"E  c #A25512",
"W  c #A05612",
"Q  c #A15612",
"!  c #A15712",
"~  c #A15613",
"^  c #A15713",
"/  c #A25612",
"(  c #A25712",
")  c #A25613",
"_  c #A25713",
"`  c #A35713",
"'  c #A35416",
"]  c #A25E13",
"[  c #A25914",
"{  c #A65B14",
"}  c #A75A16",
"|  c #A15718",
" . c #955E4F",
".. c #876157",
"X. c #F15953",
"o. c #F25852",
"O. c #F35852",
"+. c #F25952",
"@. c #F25853",
"#. c #F25953",
"$. c #F35953",
"%. c #F35A53",
"&. c #F35854",
"*. c #F35954",
"=. c #F25A54",
"-. c #9F827F",
";. c #B68F6B",
":. c #B28E6C",
">. c #B79169",
",. c #FB9943",
"<. c #FC9A45",
"1. c #FEA259",
"2. c #FFA25A",
"3. c #FEAB6D",
"4. c #FEAB6E",
"5. c #FDAC6D",
"6. c #FEAC6D",
"7. c #FDAC6E",
"8. c #274A8C",
"9. c #2B4A88",
"0. c #28498A",
"q. c #284C8A",
"w. c #2A4C8A",
"e. c #2B4C8A",
"r. c #2B4C8B",
"t. c #2B4D8B",
"y. c #294B8C",
"u. c #28498E",
"i. c #476FB4",
"p. c #476EB5",
"a. c #476FB5",
"s. c #486FB5",
"d. c None",
/* pixels */
"d.d.d.d.d.d.d.d.d.d.d.d.d.d.d.d.d.d.d.d.d.d.d.d.d.d.d.d.d.d.d.d.",
"d.d.d.d.d.d.d.d.d.d.d.d.d.d.d.d.d.d.d.d.d.d.d.d.d.d.d.d.d.d.d.d.",
"d.d.d.d.d.d.d.d.d.d.d.d.d.d.d.d.d.d.d.d.d.d.d.d.d.d.d.d.d.d.d.d.",
"d.d.d.d.d.d.d.d.d.d.X $ % & * $ $ $ = @ d.d.d.d.d.d.d.d.d.d.d.d.",
"d.d.d.d.d.d.d.d.d.d.$ 3 + O , # + X O   d.d.d.d.d.d.d.d.d.d.d.d.",
"d.d.d.d.d.d.d.d.d.2 ! ~ Y E W Q ~ Q ~ ^ 2 d.-.2 + d.d.d.d.d.d.d.",
"d.d.d.d.d.d.d.d.2 ) Q W R ( Q Q Q Q ! Q / , w Q Q 2 - d.d.d.d.d.",
"d.d.d.d.d.d.d.d.+ Q W Q W Q T W Q W Q ~ ~ : > O Q o 8 d.d.d.d.d.",
"d.d.d.d.d.d.d.d.$ ` ) Q ! T ~ Q Q ) ^ Q ~ + O O Q , ; d.d.d.d.d.",
"d.d.d.d.d.d.d.d.d.O ! Q Q Q / Q W Q ~ / > > + , , _ ~ + d.d.d.d.",
"d.d.d.d.d.d.d.d.d.+ > + ( Q Q Q ~ ) 3 > 1 O d.d.+ , > , , d.d.d.",
"d.d.d.d.d.d.d.d.d.2 O # 9 < 4 4 6 5 > + 2 O d.d.d.d.d.d.d.d.d.d.",
"d.d.d.d.d.d.d.d.d.+ , 2 , 1 + , > O 1 1 2 + d.d.d.d.d.d.d.d.d.d.",
"d.d.d.d.d.d.d.d.d.d.2 , , O > > > > > # , d.d.d.d.d.d.d.d.d.d.d.",
"d.d.d.d.d.d.d.d.d.d.d.d., + , O O , > + d.d.d.d.d.d.d.d.d.d.d.d.",
"d.d.d.d.d.d.d.d.d.d.k x c S D A G F l a z d.d.d.d.d.d.d.d.d.d.d.",
"d.d.d.d.d.d.d.d.d.d.i f f B B B m n u d s d.d.d.d.d.d.d.d.d.d.d.",
"d.d.d.d.d.d.d.d.d.Q Z C V @.@.+.@.o.v M N U  .d.d.d.d.d.d.d.d.d.",
"d.d.d.d.d.d.d.d.T 5.,.<.V @.$.#.#.@.b V ,.4.:.~ d.d.d.d.d.d.d.d.",
"d.d.d.d.d.d.d.d.Q 7.{ ] h #.X.O.+.#.t j } 7.;.Q d.d.d.d.d.d.d.d.",
"d.d.d.d.d.d.d.d./ 6.( [ g #.=.*.#.%.y p ) 3.>.Q d.d.d.d.d.d.d.d.",
"d.d.d.d.d.d.d.d.d.Q d.d.t.a.p.a.s.i.r e.d.Q ..d.d.d.d.d.d.d.d.d.",
"d.d.d.d.d.d.d.d.d.d.r.w.a.a.i.a.e.e.e.e.d.d.d.d.d.d.d.d.d.d.d.d.",
"d.d.d.d.d.d.d.d.d.d.w.8.| ' q.u.P L K J d.d.d.d.d.d.d.d.d.d.d.d.",
"d.d.d.d.d.d.d.d.d.d.w.0.Q E y.9.~ ) ~ I d.d.d.d.d.d.d.d.d.d.d.d.",
"d.d.d.d.d.d.d.d.d.d.d.d.Q @.O & d.1.H Q d.d.d.d.d.d.d.d.d.d.d.d.",
"d.d.d.d.d.d.d.d.d.d.d.d.+ Q O X d.2.&.#.O d.d.d.d.d.d.d.d.d.d.d.",
"d.d.d.d.d.d.d.d.d.d.d.d.O 7 O . d.e q 0 > d.d.d.d.d.d.d.d.d.d.d.",
"d.d.d.d.d.d.d.d.d.d.d.d.+ O + & d.+ 2 + > d.d.d.d.d.d.d.d.d.d.d.",
"d.d.d.d.d.d.d.d.d.d.d.d.d.d.d.d.d.d.d.d.d.d.d.d.d.d.d.d.d.d.d.d.",
"d.d.d.d.d.d.d.d.d.d.d.d.d.d.d.d.d.d.d.d.d.d.d.d.d.d.d.d.d.d.d.d.",
"d.d.d.d.d.d.d.d.d.d.d.d.d.d.d.d.d.d.d.d.d.d.d.d.d.d.d.d.d.d.d.d."
};
