/* XPM */
static char *result[] = {
/* columns rows colors chars-per-pixel */
"32 32 178 2 ",
"   c #603314",
".  c #643316",
"X  c #613415",
"o  c #613515",
"O  c #633515",
"+  c #633614",
"@  c #633615",
"#  c #633617",
"$  c #643515",
"%  c #653515",
"&  c #663515",
"*  c #643615",
"=  c #653615",
"-  c #653715",
";  c #663615",
":  c #643516",
">  c #653516",
",  c #673516",
"<  c #643616",
"1  c #653616",
"2  c #643716",
"3  c #653716",
"4  c #653617",
"5  c #653717",
"6  c #663616",
"7  c #663716",
"8  c #643817",
"9  c #663817",
"0  c #6A3817",
"q  c #6A341A",
"w  c #314C73",
"e  c #324C72",
"r  c #334D72",
"t  c #324D73",
"y  c #314D74",
"u  c #324C74",
"i  c #324D74",
"p  c #334D74",
"a  c #324D76",
"s  c #A82734",
"d  c #A92735",
"f  c #A92934",
"g  c #A92835",
"h  c #A92935",
"j  c #AA2A35",
"k  c #AA2836",
"l  c #AB2936",
"z  c #834820",
"x  c #824921",
"c  c #834A20",
"v  c #915225",
"b  c #925325",
"n  c #935325",
"m  c #915326",
"M  c #925326",
"N  c #935326",
"B  c #945325",
"V  c #945327",
"C  c #915425",
"Z  c #925425",
"A  c #935425",
"S  c #935525",
"D  c #925426",
"F  c #935426",
"G  c #935526",
"H  c #945425",
"J  c #955425",
"K  c #945525",
"L  c #955525",
"P  c #965425",
"I  c #965525",
"U  c #945426",
"Y  c #955426",
"T  c #945526",
"R  c #955526",
"E  c #965426",
"W  c #965526",
"Q  c #975526",
"!  c #975427",
"~  c #965527",
"^  c #975527",
"/  c #955626",
"(  c #965626",
")  c #975626",
"_  c #975726",
"`  c #975627",
"'  c #975727",
"]  c #985426",
"[  c #985526",
"{  c #985527",
"}  c #995527",
"|  c #985626",
" . c #995626",
".. c #985627",
"X. c #985727",
"o. c #9A5727",
"O. c #975628",
"+. c #985528",
"@. c #995528",
"#. c #985628",
"$. c #995828",
"%. c #CB4249",
"&. c #CA424A",
"*. c #CB454B",
"=. c #CD454D",
"-. c #CE454D",
";. c #CD464D",
":. c #CE464C",
">. c #CF474C",
",. c #CF474D",
"<. c #DA525B",
"1. c #DB535C",
"2. c #DB565D",
"3. c #E05A63",
"4. c #E15B63",
"5. c #E25C65",
"6. c #F0737D",
"7. c #F1737D",
"8. c #F2727D",
"9. c #F2737D",
"0. c #F1727E",
"q. c #F1737E",
"w. c #F2737E",
"e. c #F2747E",
"r. c #F2747F",
"t. c #F3757F",
"y. c #F3767E",
"u. c #E6955F",
"i. c #E9975F",
"p. c #EA965F",
"a. c #E89660",
"s. c #E89760",
"d. c #E99760",
"f. c #E99661",
"g. c #E99761",
"h. c #EB9660",
"j. c #EA9761",
"k. c #E99762",
"l. c #EA9762",
"z. c #E89861",
"x. c #E99861",
"c. c #EA9861",
"v. c #E99863",
"b. c #EA9962",
"n. c #6779A4",
"m. c #6679A5",
"M. c #667AA5",
"N. c #647BA7",
"B. c #647BA9",
"V. c #657CA8",
"C. c #667DA9",
"Z. c #667EAA",
"A. c #F2B78B",
"S. c #F3B78B",
"D. c #F3B98C",
"F. c #F3B98D",
"G. c #F3BA8D",
"H. c #F3BB8D",
"J. c #F3B98E",
"K. c #F3BA8E",
"L. c #F4B88C",
"P. c #F4B98C",
"I. c #F4B88D",
"U. c #F4B98D",
"Y. c #F4BA8D",
"T. c #F4B98E",
"R. c #F5B98E",
"E. c #F4BA8E",
"W. c #F5BA8E",
"Q. c #F4BB8E",
"!. c #F5BB8E",
"~. c #F4BA8F",
"^. c #F4BB8F",
"/. c #F4BA90",
"(. c #F4BB90",
"). c #F5BC91",
"_. c #F5BC92",
"`. c None",
/* pixels */
"`.`.`.`.`.`.`.`.`.`.`.`.`.`.`.`.`.`.`.`.`.`.`.`.`.`.`.`.`.`.`.`.",
"`.`.`.`.`.`.`.`.`.`.`.`.`.`.`.`.`.`.`.`.`.`.`.`.`.`.`.`.`.`.`.`.",
"`.`.`.`.`.`.`.`.`.`.`.`.`.`.`.`.`.`.`.`.`.`.`.`.`.`.`.`.`.`.`.`.",
"`.`.`.`.`.`.`.`.`.`.`.`.`.< 3 - 3 1 * < < `.`.`.`.`.`.`.`.`.`.`.",
"`.`.`.`.`.`.`.`.1 * < `.6 D A U F U U R G $ o `.`.`.`.`.`.`.`.`.",
"`.`.`.`.`.`.`.7 F F m = M Y T U L U R K O D C = `.`.`.`.`.`.`.`.",
"`.`.`.`.`.`.`.6 F V N 1 S K U F U U U K + Z U 1 `.`.`.`.`.`.`.`.",
"`.`.`.`.`.`.`.= F * 1 = F Y A H = 1 = B d.= 4 1 `.`.`.`.`.`.`.`.",
"`.`.`.`.`.`.`.1 N = 1 1 1 1 % < > ~.W.L.T.n v `.`.`.`.`.`.`.`.`.",
"`.`.`.`.`.# 3 F @ `.`.7 3 F.!.% K.Y.F.* J.A H `.`.`.`.`.`.`.`.`.",
"`.`.`.`.`.5 9 T 6 `.`.; 1 G.D.% Y.U.E.& R.A J `.`.`.`.`.`.`.`.`.",
"`.`.`.`.`.`.`.`.`.`.`.7 3 D.F.D.U.U.Q.= G.U.F./ `.`.`.`.`.`.`.`.",
"`.`.`.`.`.`.`.`.`.`.`.`.6 6 : b.E.T.E.U.H.U.A.) `.`.`.`.`.`.`.`.",
"`.`.`.`.`.`.`.`.`.`.`.`.`.O * W p.G.E.E.T.R H `.`.`.`.`.`.`.`.`.",
"`.`.`.`.`.`.`.`.`.`.`.`.`.q , ] g.U.(./.T. .Y `.`.`.`.`.`.`.`.`.",
"`.`.`.`.`.`.`.`.`.`.`.j f f s >.h.| X.^ | `.`.`.`.`.`.`.`.`.`.`.",
"`.`.`.`.`.`.`.`.`.! ] ,.y.e.r.e.3.4.5.h `.` ` ` `.`.`.`.`.`.`.`.",
"`.`.`.`.`.`.`.`.P R.T.I.:.-.&.t.e.r.w.h } d.u.).' `.`.`.`.`.`.`.",
"`.`.`.`.`.`.`.`.Q J.~.J.;.*.%.w.e.9.8.d [ f.a._.` `.`.`.`.`.`.`.",
"`.`.`.`.`.`.`.`.) E.^.{ g r.w.w.0.<.1...^.v.g...^ `.`.`.`.`.`.`.",
"`.`.`.`.`.`.`.`.^ i.k.z.@.q.q.7.6.l k ^ { ) ~ `.`.`.`.`.`.`.`.`.",
"`.`.`.`.`.`.`.`.`.o.{ O.a n.m.M.M.i t `.`.`.`.`.`.`.`.`.`.`.`.`.",
"`.`.`.`.`.`.`.`.`.{ .._ p Z.C.B.V.y w `.`.`.`.`.`.`.`.`.`.`.`.`.",
"`.`.`.`.`.`.`.6 > `.`.i i t t V.N.S.L.{ `.`.`.`.`.`.`.`.`.`.`.`.",
"`.`.`.`.`.3 - > =.f.g.Q d.u r e a.P.S.s.`.`.`.`.`.`.`.`.`.`.`.`.",
"`.`.`.`.`.8 * U . j.x.d.#.`.`.`.+.s.c.F.0 *   `.`.`.`.`.`.`.`.`.",
"`.`.`.`.`.5 7 b * j.k.g.$.`.`.`.^ c.l.J.$ @ @ `.`.`.`.`.`.`.`.`.",
"`.`.`.`.`.2 % 1 `.I Q ..`.`.`.`.`.( E 2.z x c * `.`.`.`.`.`.`.`.",
"`.`.`.`.`.`.`.`.`.`.`.`.`.`.`.`.`.= < % % * X `.`.`.`.`.`.`.`.`.",
"`.`.`.`.`.`.`.`.`.`.`.`.`.`.`.`.`.`.`.`.`.`.`.`.`.`.`.`.`.`.`.`.",
"`.`.`.`.`.`.`.`.`.`.`.`.`.`.`.`.`.`.`.`.`.`.`.`.`.`.`.`.`.`.`.`.",
"`.`.`.`.`.`.`.`.`.`.`.`.`.`.`.`.`.`.`.`.`.`.`.`.`.`.`.`.`.`.`.`."
};
