/* XPM */
static char *result[] = {
/* columns rows colors chars-per-pixel */
"32 32 200 2 ",
"   c #481D05",
".  c #481E05",
"X  c #481E06",
"o  c #491E06",
"O  c #481F06",
"+  c #4B1F06",
"@  c #4A1E07",
"#  c #4A2006",
"$  c #4A2007",
"%  c #4D2108",
"&  c #502207",
"*  c #502308",
"=  c #522308",
"-  c #54260A",
";  c #59290A",
":  c #5B280B",
">  c #5B2A0B",
",  c #5C2A0B",
"<  c #5D2B0B",
"1  c #5D2A0C",
"2  c #642E0D",
"3  c #652E0D",
"4  c #652F0D",
"5  c #662E0C",
"6  c #662F0C",
"7  c #672F0C",
"8  c #662F0D",
"9  c #672F0D",
"0  c #652E0E",
"q  c #672E0E",
"w  c #672F0E",
"e  c #682F0D",
"r  c #692F0D",
"t  c #682F0E",
"y  c #692F0E",
"u  c #66300C",
"i  c #67300C",
"p  c #67300D",
"a  c #67300E",
"s  c #68300C",
"d  c #69300C",
"f  c #69310C",
"g  c #68300D",
"h  c #69300D",
"j  c #68310D",
"k  c #69310D",
"l  c #6A310C",
"z  c #6A300D",
"x  c #6A310D",
"c  c #6B310D",
"v  c #69320D",
"b  c #6A320D",
"n  c #68300E",
"m  c #69300E",
"M  c #68310E",
"N  c #69310E",
"B  c #69310F",
"V  c #6A310E",
"C  c #6B310E",
"Z  c #6A310F",
"A  c #69320E",
"S  c #6A320E",
"D  c #6B320E",
"F  c #6D320F",
"G  c #72340F",
"H  c #6D3312",
"J  c #6C3410",
"K  c #6D3510",
"L  c #6D3411",
"P  c #6E3511",
"I  c #223E6D",
"U  c #223F6D",
"Y  c #234271",
"T  c #244372",
"R  c #DB353D",
"E  c #DA343E",
"W  c #DB343E",
"Q  c #DA353E",
"!  c #DB353E",
"~  c #DB343F",
"^  c #DA353F",
"/  c #DB353F",
"(  c #DB363E",
")  c #DB363F",
"_  c #DC353E",
"`  c #DC353F",
"'  c #934A1B",
"]  c #91491C",
"[  c #93491C",
"{  c #914B1C",
"}  c #924A1C",
"|  c #934A1C",
" . c #924B1C",
".. c #934B1C",
"X. c #934A1D",
"o. c #934B1D",
"O. c #944A1C",
"+. c #944B1C",
"@. c #944A1D",
"#. c #944B1D",
"$. c #944C1C",
"%. c #944C1D",
"&. c #F14B51",
"*. c #F24A51",
"=. c #F24B51",
"-. c #F14A52",
";. c #F14B52",
":. c #F24B52",
">. c #F14C51",
",. c #F24C51",
"<. c #F14C52",
"1. c #F24C52",
"2. c #E47849",
"3. c #E97D4C",
"4. c #EA7F4C",
"5. c #EB7F4D",
"6. c #EC7F4D",
"7. c #EC7F4E",
"8. c #ED7F4E",
"9. c #FB7D47",
"0. c #EA804D",
"q. c #EB804D",
"w. c #EB814E",
"e. c #EC814D",
"r. c #ED814E",
"t. c #EC804F",
"y. c #F08351",
"u. c #F48350",
"i. c #F28652",
"p. c #F48651",
"a. c #FA8B55",
"s. c #FC8B54",
"d. c #FC8A55",
"f. c #FC8B55",
"g. c #FD8B55",
"h. c #FB8C54",
"j. c #FB8C55",
"k. c #FC8D55",
"l. c #FC8D56",
"z. c #FC8C57",
"x. c #FD8C57",
"c. c #FD8D57",
"v. c #FE8C57",
"b. c #FE8D57",
"n. c #FE8E57",
"m. c #FBB27E",
"M. c #0D4199",
"N. c #0F429A",
"B. c #0A419C",
"V. c #0E419D",
"C. c #32558B",
"Z. c #33568B",
"A. c #33578B",
"S. c #32568D",
"D. c #33568D",
"F. c #34578D",
"G. c #34568E",
"H. c #33588D",
"J. c #34588C",
"K. c #34588D",
"L. c #2E60AF",
"P. c #2F62AE",
"I. c #2F62AF",
"U. c #3361AB",
"Y. c #3262AB",
"T. c #3560A9",
"R. c #4568A1",
"E. c #4569A1",
"W. c #4569A2",
"Q. c #4569A3",
"!. c #4668A2",
"~. c #4669A2",
"^. c #FDB280",
"/. c #FCB381",
"(. c #FDB381",
"). c #FEB280",
"_. c #FEB281",
"`. c #FEB381",
"'. c #FCB183",
"]. c #FDB382",
"[. c #FDB383",
"{. c #FEB382",
"}. c #FEB383",
"|. c #FCB482",
" X c #FDB482",
".X c #FDB483",
"XX c #FDB583",
"oX c #FEB482",
"OX c #FEB483",
"+X c #FEB583",
"@X c #FDB682",
"#X c #FFB683",
"$X c #FDB385",
"%X c #FFB584",
"&X c #FDB684",
"*X c #FEB684",
"=X c #FFB684",
"-X c #FFB685",
";X c #FFB885",
":X c None",
/* pixels */
":X:X:X:X:X:X:X:X:X:X:X:X:X:X:X:X:X:X:X:X:X:X:X:X:X:X:X:X:X:X:X:X",
":X:X:X:X:X:X:X:X:X:X:X:X:X:X:X:X:X:X:X:X:X:X:X:X:X:X:X:X:X:X:X:X",
":X:X:X:X:X:X:X:X:X:X:X:X:X:X:X:X:X:X:X:X:X:X:X:X:X:X:X:X:X:X:X:X",
":X:X:X:X:X:X:X:X:X:X:Xk k A N k v m k g j :X:X:X:X:X:X:X:X:X:X:X",
":X:X:X:X:X:X:X:X:X:X:Xx x k h x k x z x k :X:X:X:X:X:X:X:X:X:X:X",
":X:X:X:X:X:X:X:X:X:XN | o.+.o...+.| o...} m :X:X:X:X:X:X:X:X:X:X",
":X:X:X:X:X:X:X:XC F @.o.$.+...} | #.o.......G D :X:X:X:X:X:X:X:X",
":X:X:X:X:X:X:X:Xk k  .O.o.+.} ....%.+...+.#.m C :X:X:X:X:X:X:X:X",
":X:X:X:X:X:X:X:Xm x #.#.X.+.e g [ | $.O.#.#.h D V 0 :X:X:X:X:X:X",
":X:X:X:X:X:X:X:Xk V ..#.%.| s d ] ..| o.o.{ g D S n :X:X:X:X:X:X",
":X:X:X:X:X:X:X:Xm m r ' O.f j z l h j O.[ j h c b x D N M :X:X:X",
":X:X:X:X:X:X:X:Xa J 0.g 4 4.w j g e 0.i 9 e.t k X . N @ + :X:X:X",
":X:X:X:X:X:X:X:XB H 7.7 8 5.2 p p 3 q.5 u 6.q k O   k o $ :X:X:X",
":X:X:X:X:X:X:X:Xn K w.].].< |.^.).m.> .X{.r.p k :X:X:X:X:X:X:X:X",
":X:X:X:X:X:X:X:X:X:XL [..X1  X_./.(.: OXOXP :X:X:X:X:X:X:X:X:X:X",
":X:X:X:X:X:X:X:X:X:XZ +X+X, ].oX`.@X; XX+Xz :X:X:X:X:X:X:X:X:X:X",
":X:X:X:X:X:X:X:X:X:X:Xa.j.].}..XOXXX-Xi.y.% :X:X:X:X:X:X:X:X:X:X",
":X:X:X:X:X:X:X:X:X:X:Xh.h.*XXX*XXX;X&Xp.u.# :X:X:X:X:X:X:X:X:X:X",
":X:X:X:X:X:X:X:X:X:X` R Q ( k.x.c.f.! W R _ :X:X:X:X:X:X:X:X:X:X",
":X:X:X:X:X:X:X:Xl.d.1./ ` :.:.1.:.-.<.! ) :.y n :X:X:X:X:X:X:X:X",
":X:X:X:X:X:X:X:Xz.s.&.^ ~ =.1.,.;.:.:.E ~ =.i n :X:X:X:X:X:X:X:X",
":X:X:X:X:X:X:X:Xx.c.OXx.v.=.*.&.:.>.=.b.n.=X*XXX:X:X:X:X:X:X:X:X",
":X:X:X:X:X:X:X:X:X:X:XM.N.Y.I.L.P.U.T.V.B.9.+X%X:X:X:X:X:X:X:X:X",
":X:X:X:X:X:X:X:X:X:X:XK.J.W.E.Q.W.W.!.F.H.g.#X*X:X:X:X:X:X:X:X:X",
":X:X:X:X:X:X:X:X:X:X:X:X:X'.G.Z.U T ~.A.K.:X:X:X:X:X:X:X:X:X:X:X",
":X:X:X:X:X:X:X:X:X:X:X:X:X$XD.C.I Y R.S.D.:X:X:X:X:X:X:X:X:X:X:X",
":X:X:X:X:X:X:X:X:X:X:X:X:X8.2.3.o - t.8 p :X:X:X:X:X:X:X:X:X:X:X",
":X:X:X:X:X:X:X:X:X:X:X:Xj e 6 5 :X* = :X:X:X:X:X:X:X:X:X:X:X:X:X",
":X:X:X:X:X:X:X:X:X:X:X:Xp 9 i 7 :X& * :X:X:X:X:X:X:X:X:X:X:X:X:X",
":X:X:X:X:X:X:X:X:X:X:X:X:X:X:X:X:X:X:X:X:X:X:X:X:X:X:X:X:X:X:X:X",
":X:X:X:X:X:X:X:X:X:X:X:X:X:X:X:X:X:X:X:X:X:X:X:X:X:X:X:X:X:X:X:X",
":X:X:X:X:X:X:X:X:X:X:X:X:X:X:X:X:X:X:X:X:X:X:X:X:X:X:X:X:X:X:X:X"
};
