/* XPM */
static char *result[] = {
/* columns rows colors chars-per-pixel */
"32 32 185 2 ",
"   c #673712",
".  c #663713",
"X  c #673713",
"o  c #673811",
"O  c #663812",
"+  c #673812",
"@  c #663813",
"#  c #673813",
"$  c #663913",
"%  c #673913",
"&  c #663814",
"*  c #673914",
"=  c #683911",
"-  c #683812",
";  c #693812",
":  c #683912",
">  c #693912",
",  c #683813",
"<  c #693813",
"1  c #683913",
"2  c #693913",
"3  c #6A3812",
"4  c #6A3912",
"5  c #6A3813",
"6  c #6B3813",
"7  c #6A3913",
"8  c #6B3913",
"9  c #683A12",
"0  c #693A12",
"q  c #683A13",
"w  c #693A13",
"e  c #6A3A12",
"r  c #6A3A13",
"t  c #6E3B13",
"y  c #683814",
"u  c #693814",
"i  c #683914",
"p  c #693914",
"a  c #683A14",
"s  c #693A14",
"d  c #6A3B14",
"f  c #364972",
"g  c #374973",
"h  c #374874",
"j  c #364974",
"k  c #374975",
"l  c #364B75",
"z  c #374A76",
"x  c #384A73",
"c  c #384974",
"v  c #384A74",
"b  c #394A76",
"n  c #334A78",
"m  c #B43735",
"M  c #B63736",
"N  c #B73736",
"B  c #B43836",
"V  c #B63836",
"C  c #B73836",
"Z  c #B63936",
"A  c #B73936",
"S  c #B83836",
"D  c #BA3A37",
"F  c #93511D",
"G  c #93521D",
"H  c #93511E",
"J  c #93521E",
"K  c #93521F",
"L  c #94511D",
"P  c #95511D",
"I  c #94521D",
"U  c #95521D",
"Y  c #96521D",
"T  c #94511E",
"R  c #95511E",
"E  c #94511F",
"W  c #95511F",
"Q  c #96511F",
"!  c #94521E",
"~  c #95521E",
"^  c #96521E",
"/  c #97531E",
"(  c #97531F",
")  c #97541F",
"_  c #98511E",
"`  c #98521E",
"'  c #99521F",
"]  c #98531F",
"[  c #98541F",
"{  c #99541F",
"}  c #9A551E",
"|  c #9B541F",
" . c #9A551F",
".. c #9B551F",
"X. c #9D561F",
"o. c #975420",
"O. c #995321",
"+. c #9A5320",
"@. c #985420",
"#. c #995520",
"$. c #9A5420",
"%. c #9B5420",
"&. c #9A5520",
"*. c #9B5520",
"=. c #9B5421",
"-. c #9A5521",
";. c #9B5521",
":. c #995621",
">. c #9B5620",
",. c #9A5621",
"<. c #9B5621",
"1. c #9C5420",
"2. c #9C5520",
"3. c #9C5421",
"4. c #9C5521",
"5. c #9C5620",
"6. c #9C5721",
"7. c #CD4541",
"8. c #CE4441",
"9. c #CE4443",
"0. c #CE4543",
"q. c #CF4644",
"w. c #D14845",
"e. c #D14946",
"r. c #D9514D",
"t. c #ED7068",
"y. c #EC7168",
"u. c #EC7069",
"i. c #ED7069",
"p. c #EC7169",
"a. c #ED7169",
"s. c #ED706A",
"d. c #EC716A",
"f. c #ED716A",
"g. c #EE716A",
"h. c #ED726A",
"j. c #EC736B",
"k. c #ED736B",
"l. c #EE726A",
"z. c #E58541",
"x. c #E58641",
"c. c #E58643",
"v. c #E68744",
"b. c #E68844",
"n. c #E78844",
"m. c #E78944",
"M. c #E78945",
"N. c #E78A45",
"B. c #E68946",
"V. c #E78946",
"C. c #E78A46",
"Z. c #E88844",
"A. c #E88945",
"S. c #E98945",
"D. c #E88A46",
"F. c #E88C45",
"G. c #F3AA7A",
"H. c #F2AB7B",
"J. c #F3AD79",
"K. c #F1AC7B",
"L. c #F2AC7A",
"P. c #F2AC7B",
"I. c #F2AD7B",
"U. c #F3AD7B",
"Y. c #F1AE7B",
"T. c #F2AE7B",
"R. c #F1AD7C",
"E. c #F2AC7C",
"W. c #F3AC7C",
"Q. c #F2AD7C",
"!. c #F3AD7C",
"~. c #F2AD7D",
"^. c #F1AE7C",
"/. c #F2AE7C",
"(. c #F3AE7C",
"). c #F3AD7E",
"_. c #5F72A3",
"`. c #5F71A4",
"'. c #6171A1",
"]. c #6071A3",
"[. c #6172A2",
"{. c #6072A3",
"}. c #6173A3",
"|. c #6073A4",
" X c None",
/* pixels */
" X X X X X X X X X X X X X X X X X X X X X X X X X X X X X X X X",
" X X X X X X X X X X X X X X X X X X X X X X X X X X X X X X X X",
" X X X X X X X X X X X X X X X X X X X X X X X X X X X X X X X X",
" X X X X X X X X X X X> , q 2 : 1 , : #  X X X X X X X X X X X X",
" X X X X X X X X X+ X I ! J L L H T T ! 2  X X, ,  X X X X X X X",
" X X X X X X X X1 K J + H P ~ ~ Y ! ~ I H # % F E 1 @  X X X X X",
" X X X X X X X X1 W T   I G T L ~ ~ ~ I G o , H R - *  X X X X X",
" X X X X X X X X2 ; 1 n.- ; + U T ~ ^ L L # i 2 T # #  X X X X X",
" X X X X X X X X X^ ] U.Q.  - , < ^ ^ P u 2 ; 1 < T J 2  X X X X",
" X X X X X X X X X[ { Q.: I.I.L.- T.L.1 2 1 O  X1 1 y > a  X X X",
" X X X X X X X X XO.Q U.; T.I.U.= I./.3 5 9 :  Xq r d s p  X X X",
" X X X X X X X X@.I.Q.Q.1 Q.Q./.P.P./.0 2 7 #  X X X X X X X X X",
" X X X X X X X X;.(.!.Q./.Q.Q.T.A.. : - 9  X X X X X X X X X X X",
" X X X X X X X X X..-.R.Q.Y.^.x.2.- w 2  X X X X X X X X X X X X",
" X X X X X X X X X5.2.~.~.).E.A.%.7 6 5  X X X X X X X X X X X X",
" X X X X X X X X X X X>.*.*.+.S.8.Z Z A D  X X X X X X X X X X X",
" X X X X X X X X%.;.1. X X7.q.r.f.h.j.k.e.=.o. X X X X X X X X X",
" X X X X X X X&.I.z.c.X.S t.y.l.d.M C V G.P.J.;. X X X X X X X X",
" X X X X X X X| E.v.M.*.B p.p.i.a.N N m L.H.P.;. X X X X X X X X",
" X X X X X X X%.>.D.C.V.;.f.i.g.s.s.p.$.;.E.L.4. X X X X X X X X",
" X X X X X X X X X} %.,.3.9.0.i.u.u.s.E.E. .@. X X X X X X X X X",
" X X X X X X X X X X X X Xc h ].[.[.'.b 6. X X X X X X X X X X X",
" X X X X X X X X X X X X Xn j `.|.{.}.z :. X X X X X X X X X X X",
" X X X X X X X X X X X X;.U.I.P._.f v k l  X X$.2  X X X X X X X",
" X X X X X X X X X X X Xb.P.L.$.g x g b.M...` e.> 2 &  X X X X X",
" X X X X X X X X X# 7 t I.Q.Q.&. X X X4.M.m.Z._ / < $  X X X X X",
" X X X X X X X X X2 < 8 E.W.K.<. X X X>.B.N.F.$./ - i  X X X X X",
" X X X X X X X X, ^ ( ] w.' [  X X X X X%.#.)  X> - @  X X X X X",
" X X X X X X X X X: < 2 4 < e  X X X X X X X X X X X X X X X X X",
" X X X X X X X X X X X X X X X X X X X X X X X X X X X X X X X X",
" X X X X X X X X X X X X X X X X X X X X X X X X X X X X X X X X",
" X X X X X X X X X X X X X X X X X X X X X X X X X X X X X X X X"
};
