/* XPM */
static char *_4feaa3061254a66a43cfd0124075b6a5Y1p2RF1V1LHqSPQ[] = {
/* columns rows colors chars-per-pixel */
"64 64 4 1 ",
"  c #0D1F0C",
". c gray20",
"X c gray39",
"o c gray56",
/* pixels */
".XXX.XXXXXX. .X..XXXX. .X...XXXXXXXXXX. .   .    .XX..XXXX. .  .",
"XXXX.X.X.XXX.XX.X..XXX.XXX. ..XX..X..X. .  ........XXXXXXX.   . ",
"..XXXX.X..XX..XXXXXX.XXXXXX.XXX.oo.o..  .  .o..o.XXXX.XXXX. ....",
"  .X..X..XXXX.XXX..XX.XXX.XX..X.oo.o.  . . .....o.XX.o.XXX.  .. ",
" ....XXX.X.XX..X.oo.XXX.XXXXXXX.ooo....   .XXX.X.o.X..XXX.. ... ",
".X..o.XXXX..XXX.o..XXX...XXX..XX...XXXX.  .X.XXX...X.XXX.   ..  ",
".XX...X.XXX.XXXX.XXXXX..XX..  .XX...XX.X..XXX.XX.XXX..XX... ... ",
"XXXXXXXXX..XX.X..XXX...XX.o..  ...XXXX.XXXX.XXX..XXXX.X.X.   .  ",
"..XXXXXX.o..XXXXX.X..o.XX...o. .o..XXXXX..XX..X.X.XXXXX.X.  .o. ",
". ..X.X...XXXXX..XXX..X....X.....XXXXXXX.o.X.XXXXXXX.XX.XX. .oo.",
" . ....o.o..XXXXXXXXXXXXX..XXXXXXXXXX.XXX.XX.XX.X..XX.XXX.  .o. ",
". .  . ..oo.X..XX.XX.XX.XX..X.X.X....XXXXXXX.X.o...XX....X..... ",
"  ..     ...XX.XX.XX.XXX.X.XXXX.XX.o.XX..XXX.X..X..XX.XXXX.     ",
"... .... ..XX. .XXXXX.X..XXXXXXXX...X...o.X.o.X.X.XXXXXXXX.   ..",
"  .  .X....XX. ..X.XX....X.X.X....XXX..o..XX.XXXXX..XXXXXXX. ...",
" .. ..X..XXX..  ...XX.XXX.XXX.XXX.XXXX..XXX.X.XX..XXXX.X.X.o. ..",
"   .o.XXXXX.   .  .XX.XXXXXXX.XXXXXX..XXXX.XXXXXXXXX.XXX....    ",
" ...oo..XXX...   .o.XXX..X.XX...XX...X..XXXX.X.XX.XXXX.XXXX. . .",
".oo.o.o..XX.X.....oo.XX.X.XXXXXXXXXXXX..XX.X..XXXXX...XXXXX.    ",
"..o.o..XX.XXX.X.XX..X.XXX.XXXX.XXX.XXX.XXXXXX...XXXX...XX..o....",
"... .o..XXXX.XXXX.X.XXXXXXX..XX....X.X.....X....XXX.X..XX...  .o",
".   .. ....XX.X..XXXX..XXX.XXXXXXXX.XXX...X.o..XXXXXXX......   .",
"  .    .  .X.XX....X..XX.XX.XXX.X..XXX.X.XXX..XX.XXXXXX...     .",
"    ..   ..XXXX.. ...X.X.X.X.X..X.XX.XXXXXX.XXXX..XX.XXX.X.   . ",
"   ..     ..X..   .XXXXXX..XX..XXXXXX....XXXXX.X.XXXXXX..XX.    ",
".   .    . ...  ...X.XX.XXXXXXX.XXXX.o.oo...XXXXXX..X.XXXX..   .",
"  .  . .       .XXXX.XXXX.XX..X.X...X.o..X..X.X.......X.X.     .",
"... ..  .   ... .XXX..XXX..XX..XXXXXX.o.XXXX.X.XXXX.XXXXXX.  . .",
" .. .o... .      ..X.XX.XX....XXXXXXXX..X..XXXXXX..XXXXXX.  ....",
"  . .o.o... . . .XXX.XXXXXXX.X.XXXXXXXXX...XXXXXXXXXXXXX.o. ...o",
"    ...oo.  .  .o.XXXX.X..X.XXXX..XXXX.XXXX.XX.X..XXXXX...o.o..o",
" .  .  ..X..X..X.X....o..XX..XXXX..XXXXX.X....XXXX..XXX.oo...X..",
" . .  .XXXXXXXXXXXXXXX.X.X...XXXXXXX.X.XXXXXXX.XXXXXXXX..o.XXX..",
"     .XX.XX..XXXXX..XXXXXX.X...X..XX..o.XX..XXXX.X.X.X.XX..XXXX.",
"........XXX..XX.X..XXX..XXXX.X.X.o...oo...XXXXX..XXXXXXXXXXXX.X.",
"..  .X..X.XX.XXXXXX.XXXXXX.XXX.XX...X........XX.XX.X.XXX.XXXXX..",
"    .XXXXXXX...X.XXX..X..XXXXXXXXXX.X.XXXXX..XXXXX.XXX.X.XXX.XXX",
".    .XX..X.oo.X..XXXX.o..X.XX.XXX..XXXXXX.XXXXXXXXXXX..XXXXX.X.",
". .   ..o.X.o.XXX.XX....X..X.XXXXXXX..XX.XXXXX..X..XX..o.XXXX.X.",
" .   .XX..XX..XXX...X.XXX.XX.XX...X.XX.XX.X.XX. ..XXX.o.XX.XXXXX",
".X...XXX.X.XX...X.XXXXXXX.XXXX.XXX.XXXXX... ...  .XX.X..X.XXXX..",
".XX.XX.XXX.XX.XXXXXXX.XXXXXXX..X.XXX.XX.      . ..XX.X.XXXXXX.. ",
".XXXX.XX.XXXXXXX.XXXX...XXXX.XXXX...o..  ..     .XX.XX.XX....   ",
".X....XXX.X.XXXXXX..X.XX..X..XXXXXXX.o.  ...  ..XX...XXX.o.X..  ",
"XX.X.XX.X.XXXX.XX.o...XXXXXXX.XXXXXXX.o.. .. .o..XXX.X.XX..XX.  ",
".XXXXXXXX.XXX.XXX...XX.XXXX..o..X.X..o.o. ..  . ..XXXXXX.XXXX.. ",
"XX.X.X.X..XXX.XXX.XXXXXX.XX.oooo. . ..o..  .. . ...XXXXXXXXX. ..",
".XXX.XX....X...XXXXX.XXX.XX.o.o.     .o...      ...XXXXXXXX..  .",
".X.XXXXX..XXXX.X.X.XXXXX.......o.   . .o...    .XXXXXX.X..X.  . ",
"XX.XXXXX.....X.X..X.XX.XXXXX..o.. ...  . ..   ..X.XXXXXX..X.   .",
"..XXXXXXXXXXXX.X..X.XXX....X..o.   .           .XXX.XX.X.XX..  .",
"  .X.X..X.XX.XXXXXXX.XXXXXXX.o...    ......     .X.XXXX..XXXX. .",
"...XX...XXXX.X.......XXXXX.XX. ... .  ..ooo. .. ..XX..XX....XX.o",
"XX.XX.X.X...XXXX.o...X.XXXX...   . . ...oo.  ....XXXXXX.o.o.X. .",
"XX...XX.XXX..XXXX.XXXX.XXXXX.   .  ...  ..   .oo.XXXXX.X.o...  .",
".XX.X.XXXXX..X.XXXXXXX.XXXXXX.      ..      . ...X.X.XXX..XX..  ",
"XXXXXXXX.XX.XX.XXXXXXXXXX.XX.. .. . .X..  ..  ..o.XXXXXXXXX.o.. ",
"XX...X...X.X.X...XX..XX..o...  .o.o..XX. .o.  .....XXX.X.XX..  .",
"XXXX.X.o...XXXX.XXX.XX..X.X.o.......XX.X.ooo.  . . .X.X.XXX..  .",
"XXXXX..o.XXX.XX...XXXXXXXXXX.X.X.X.X.XXX....       .X.XX.XX.. . ",
"XXXX..o..X.X..XX.XXX.XX..XXXXX.XXXXXXX.XX..  .   .  ...XX.XX. . ",
"X..X. .....XXX.XXXXX.XXXX.XXXXXX.XX.......o. .    .  ...XXX.....",
". ...    . .XXX.X.XXX..X.XXXX..X.XXX.XXXX..o.  . ...  ...X.X.  .",
".   .....  .X.X.X.XX..XXX..X..XX..XXXXX...o.  .    .  .o.XXX...."
};
